<svg width="60" height="60" viewBox="0 0 60 60" fill="none" xmlns="http://www.w3.org/2000/svg">
    <circle cx="30" cy="30" r="30" fill="#EBF5FF"/>
    <path fill-rule="evenodd" clip-rule="evenodd"
          d="M42.3624 17.6135C42.8032 17.6135 43.2205 17.7932 43.5275 18.098C43.8344 18.4105 44.0077 18.8324 43.9997 19.262C43.9211 23.9186 43.74 27.4813 43.4016 30.3017C43.0709 33.1223 42.575 35.2161 41.8272 36.9116C41.3234 38.0444 40.7015 38.982 39.9694 39.7789C38.9855 40.8337 37.8599 41.5994 36.6319 42.326C36.1069 42.6376 35.561 42.9453 34.9885 43.2681C33.7668 43.9567 32.4235 44.7138 30.9013 45.7247C30.3503 46.0918 29.634 46.0918 29.083 45.7247C27.5374 44.702 26.1764 43.9355 24.9436 43.2413C24.6694 43.087 24.4016 42.9362 24.1395 42.787C22.6991 41.9588 21.4003 41.1696 20.2667 40.0289C19.5111 39.2789 18.8577 38.3647 18.3382 37.2787C17.6297 35.8255 17.1495 34.0676 16.7953 31.7941C16.323 28.7548 16.0869 24.778 16.0003 19.262C15.9924 18.8324 16.1577 18.4105 16.4647 18.098C16.7717 17.7932 17.1968 17.6135 17.6376 17.6135H18.3146C20.4005 17.6214 25.0054 17.4182 28.9885 14.3399C29.5788 13.8867 30.4055 13.8867 30.9958 14.3399C34.9789 17.4182 39.5838 17.6214 41.6777 17.6135H42.3624ZM38.7022 35.8725C39.2138 34.8254 39.6389 33.3801 39.9616 31.3018C40.3473 28.8173 40.5835 25.4421 40.6937 20.8481C38.2377 20.7777 34.0185 20.309 29.9961 17.6214C25.9737 20.3011 21.7545 20.77 19.3064 20.8481C19.3929 24.6452 19.5661 27.5985 19.8416 29.919C20.1564 32.5598 20.6052 34.349 21.164 35.6068C21.534 36.4428 21.9434 37.0444 22.4314 37.5756C23.0848 38.2867 23.9112 38.8727 25.0369 39.5445C25.5039 39.8226 26.0187 40.1118 26.5791 40.4267C27.5775 40.9875 28.7206 41.6297 29.9961 42.4354C31.2481 41.6428 32.3747 41.0073 33.3615 40.4505C33.659 40.2827 33.9436 40.1221 34.2153 39.9664C35.6007 39.1773 36.624 38.5211 37.3875 37.7554C37.8993 37.2319 38.3165 36.6616 38.7022 35.8725Z"
          fill="#3375BB"/>
</svg>
